<svg width="79" height="46" xmlns="http://www.w3.org/2000/svg" xmlns:xlink="http://www.w3.org/1999/xlink" overflow="hidden"><defs><clipPath id="clip0"><rect x="33" y="657" width="79" height="46"/></clipPath></defs><g clip-path="url(#clip0)" transform="translate(-33 -657)"><path d="M24.2347 21.9914C24.3668 22.1136 24.507 22.2439 24.6804 22.4042 24.7353 22.5724 24.6053 22.7386 24.5406 22.918 24.5476 22.9359 24.5495 22.9596 24.5621 22.9707 24.8233 23.2035 24.808 23.2982 24.5049 23.4559 24.2595 23.5832 24.0378 23.7858 23.7791 23.8511 23.4313 23.939 23.239 24.2598 22.8837 24.3382 22.6786 24.3834 22.4679 24.5621 22.3361 24.7379 22.1954 24.9251 22.0714 25.1573 22.0984 25.4191 22.114 25.5719 22.1844 25.6261 22.3348 25.6231 22.3443 25.6228 22.3542 25.6212 22.364 25.6203 22.5239 25.6025 22.7235 25.5177 22.8351 25.583 22.9991 25.6796 23.1393 25.5918 23.2865 25.6132 23.491 25.643 23.7087 25.5704 23.9212 25.559 24.0456 25.5525 24.1715 25.5861 24.2968 25.5894 24.4037 25.5924 24.5127 25.5894 24.6175 25.5707 24.8494 25.5297 25.0814 25.4288 25.3094 25.4399 25.6745 25.4586 26.0111 25.3299 26.3651 25.3101 26.4238 25.307 26.4815 25.2906 26.5392 25.278 26.5678 25.2719 26.6044 25.2439 26.6222 25.2536 26.859 25.3834 27.1638 25.319 27.3758 25.5198 27.4249 25.5661 27.4848 25.6325 27.541 25.6341 27.7459 25.6401 27.8518 25.7743 27.9753 25.9054 28.0357 25.9696 28.1423 25.9903 28.228 26.0309 28.2996 26.2388 28.3717 26.4497 28.4375 26.6414 28.3812 26.7933 28.3296 26.9406 28.2722 27.0858 28.1976 27.2743 28.1212 27.4618 28.0406 27.6476 27.9773 27.7931 28.0046 27.9737 27.8641 28.0925 27.845 28.1086 27.8761 28.183 27.8828 28.2302 27.903 28.3636 27.9475 28.4991 27.9377 28.6303 27.9091 29.0195 27.9828 29.412 27.9371 29.7932 27.9049 30.0638 27.9178 30.3319 27.8917 30.5994 27.8893 30.6282 27.8851 30.6667 27.8666 30.6827 27.7292 30.8007 27.7336 30.9825 27.659 31.1259 27.4342 31.5589 27.3973 32.0533 27.1889 32.4927 27.081 32.7198 26.925 32.9209 26.8345 33.151 26.7627 33.3332 26.5794 33.3939 26.4866 33.5515 26.4519 33.6102 26.2878 33.5934 26.162 33.6145 26.1208 33.6691 26.0686 33.7385 26.0161 33.8085 25.9849 33.8104 25.944 33.8254 25.9281 33.8118 25.7831 33.6903 25.5586 33.6814 25.4678 33.4785 25.4494 33.438 25.3744 33.414 25.3209 33.3998 25.2067 33.3698 25.0896 33.3508 24.9555 33.3239 24.8992 33.038 24.6877 32.8711 24.4525 32.725 24.3301 32.6491 24.2097 32.5816 24.1095 32.4622 24.045 32.3848 23.8751 32.3952 23.7123 32.3568 23.6937 32.3277 23.6537 32.2647 23.588 32.162 23.7781 32.1395 23.9341 32.1207 24.1179 32.0987 24.116 32.1006 24.1418 32.0838 24.1589 32.0609 24.3085 31.8655 24.4605 31.7221 24.7464 31.6976 24.9513 31.6798 25.1415 31.491 25.3578 31.3675 25.3821 31.2257 25.3799 31.0498 25.5556 30.9561 25.5875 30.9393 25.5991 30.8724 25.6083 30.8263 25.6594 30.5584 25.7162 30.2909 25.7529 30.0207 25.7808 29.8147 25.7655 29.6028 25.8589 29.4063 25.8742 29.3735 25.8447 29.3167 25.8291 29.2732 25.8201 29.2478 25.7779 29.2191 25.7834 29.206 25.9238 28.8742 25.7465 28.5125 25.881 28.1803 25.8979 28.1392 25.8873 28.0862 25.8846 28.0388 25.8671 27.7276 25.8425 27.417 25.8318 27.1059 25.8239 26.8877 25.8471 26.6678 25.8269 26.4514 25.8214 26.3927 25.71 26.2998 25.6452 26.2979 25.3999 26.2912 25.1514 26.2988 24.9082 26.332 24.5588 26.38 24.2149 26.4646 23.866 26.5149 23.6338 26.5481 23.4481 26.6746 23.2811 26.8071 23.0437 26.9961 22.877 27.264 22.6077 27.4298 22.5266 27.4794 22.5042 27.6241 22.4348 27.7658 22.5733 27.8141 22.6689 27.8465 22.7637 27.8807 22.8718 27.9198 22.9891 27.9441 23.0841 28.0041 23.2042 28.0797 23.2387 28.2037 23.1835 28.3423 23.1477 28.4339 23.1108 28.5251 23.0757 28.6118 22.8467 28.7282 22.6206 28.8427 22.3766 28.9666 22.5282 29.1995 22.6148 29.4373 22.9117 29.5002 23.022 29.5233 23.1114 29.646 23.2259 29.7354 23.0251 30.0833 22.858 30.4241 22.5503 30.6775 22.5563 30.7155 22.5602 30.7538 22.5672 30.7916 22.6126 31.0321 22.653 31.2611 22.5593 31.5127 22.4629 31.7714 22.4423 32.0578 22.3828 32.3308 22.3505 32.4801 22.3926 32.6591 22.2219 32.7591 22.2019 32.7707 22.1933 32.8111 22.1902 32.8393 22.1531 33.176 22.0607 33.4815 21.7616 33.6884 21.7088 33.7248 21.6876 33.8047 21.6427 33.8562 21.5943 33.9113 21.5346 33.9565 21.4782 34.0076 21.3876 33.9503 21.3136 33.9033 21.2021 33.8329 21.2021 33.6106 21.2054 33.3702 21.2008 33.1296 21.1959 32.8698 21.1664 32.6147 21.1219 32.3563 21.0872 32.1545 21.0841 31.9329 21.0804 31.7214 21.0779 31.5823 21.0905 31.4534 20.9455 31.4012 20.7969 31.3477 20.6765 31.4141 20.5985 31.5527 20.5896 31.5689 20.5706 31.5793 20.5461 31.6013 20.3391 31.5631 20.1475 31.611 19.9331 31.6815 19.6479 31.775 19.3158 31.7573 19.0079 31.7356 18.9081 31.7284 18.8009 31.5708 18.7319 31.4602 18.652 31.3325 18.6103 31.1809 18.5362 31.0013 18.614 30.7904 18.8531 30.7567 19.0808 30.7168 19.2247 30.6912 19.3804 30.7168 19.4646 30.5478 19.4809 30.5152 19.5506 30.4954 19.597 30.4935 19.9123 30.48 20.1531 30.2716 20.4378 30.1779 20.567 30.1355 20.6908 30.0745 20.8216 30.0377 20.9691 29.9966 20.9951 29.9016 20.9801 29.75 20.8391 29.75 20.7042 29.732 20.5766 29.7553 20.4627 29.7761 20.3447 29.7569 20.2366 29.877 20.0846 30.0459 19.8601 30.0359 19.4704 29.9327 19.4261 29.8007 19.3632 29.6642 19.3355 29.5207 19.2931 29.3012 19.3235 29.0991 19.5093 28.934 19.7381 28.7312 19.7168 28.5327 19.4675 28.3374 19.429 28.3072 19.3904 28.2727 19.364 28.2323 19.1195 27.8575 18.7793 27.9867 18.4494 28.0544 18.3134 28.0821 18.2194 28.1845 18.1028 28.2409 17.8365 28.3692 17.5685 28.2821 17.3172 28.1745 17.0727 28.0698 16.9723 28.1145 16.9444 28.3711 16.9383 28.4276 16.9324 28.4886 16.9075 28.5382 16.7479 28.8574 16.7985 29.1818 16.8774 29.5071 16.922 29.6893 16.9545 29.8687 16.9357 30.0598 16.9236 30.1825 16.9447 30.3123 16.9739 30.4338 17.0648 30.8122 17.1673 31.1878 17.2628 31.5654 17.2743 31.6123 17.2798 31.6673 17.2672 31.7127 17.191 31.9884 17.2822 32.2525 17.3184 32.58 17.3101 32.5843 17.2681 32.6118 17.2222 32.6317 16.9451 32.7548 16.9449 32.7542 17.006 33.028 16.9199 33.1345 16.8251 33.1133 16.7612 33.0186 16.565 32.7286 16.4015 32.4233 16.3436 32.0695 16.3291 31.979 16.2873 31.8739 16.2223 31.8151 16.1198 31.7223 16.1147 31.6274 16.1111 31.5012 16.1037 31.2714 16.0365 31.0433 16.0361 30.814 16.0361 30.6526 16.0199 30.5089 15.9249 30.3564 16.1021 30.0844 15.9405 29.802 15.9227 29.5175 15.9181 29.4416 15.8697 29.3469 15.9 29.2945 16.0219 29.0818 15.9566 28.8483 15.9983 28.6281 16.0124 28.5543 16.008 28.4545 15.9683 28.3983 15.9136 28.3215 15.9246 28.275 15.945 28.1919 15.9647 28.1107 15.9136 28.0124 15.8912 27.9099 16.004 27.7563 16.1482 27.6256 16.3733 27.6143 16.4121 27.6124 16.4488 27.5682 16.4851 27.5413 16.5241 27.5128 16.5585 27.4609 16.5996 27.4554 16.8935 27.4164 17.1014 27.2036 17.3565 27.0872 17.4123 27.0615 17.4625 27.0003 17.4917 26.9437 17.5633 26.8043 17.6588 26.7037 17.8167 26.6944 17.8713 26.4365 17.903 26.4001 18.1278 26.3806 18.3436 26.3614 18.5605 26.3507 18.7769 26.3429 18.8859 26.3391 18.9679 26.3027 19.0186 26.2035 19.0782 26.0871 19.1798 26.0416 19.3038 26.0185 19.3988 26.0008 19.4964 25.9709 19.5778 25.9214 19.6769 25.8612 19.7673 25.8633 19.8799 25.8642 20.149 25.8661 20.3973 25.7705 20.5964 25.5755 20.6799 25.4938 20.6765 25.397 20.6344 25.3016 20.5909 25.2031 20.5052 25.2014 20.4082 25.2119 20.313 25.2223 20.2153 25.2142 20.1195 25.2047 19.8824 25.1811 19.6453 25.1897 19.4083 25.1842 19.1418 25.1785 18.8604 25.1298 18.675 24.94 18.5574 24.8199 18.4474 24.7395 18.2754 24.7091 18.2757 24.4489 17.9374 24.2884 18.1317 23.9815 17.9735 23.936 17.8384 23.9263 17.7889 23.7602 17.7036 23.4724 17.7619 23.3326 18.1104 23.1487 18.2197 23.0911 18.3364 23.0112 18.4707 23.1013 18.4851 23.1114 18.5091 23.1114 18.5281 23.1105 18.8496 23.0932 19.1708 23.0748 19.4923 23.0573 19.5891 23.052 19.6869 23.0536 19.7825 23.04 19.8986 23.0235 20.0592 23.0338 20.118 22.9632 20.2571 22.7964 20.4384 22.788 20.6165 22.7601 20.7688 22.7362 20.8489 22.6761 20.8427 22.5123 20.8403 22.4465 20.8539 22.3706 20.887 22.3154 20.991 22.1419 20.9416 21.9617 20.8356 21.8466 20.6851 21.6834 20.6201 21.4847 20.5089 21.2948 20.5751 21.0814 20.6441 20.8611 20.7187 20.6211 20.8832 20.6094 21.0389 20.6066 21.1916 20.5845 21.2729 20.5728 21.3614 20.5443 21.425 20.4953 21.6881 20.2918 22.0183 20.3106 22.2369 20.5594 22.3082 20.6403 22.3653 20.7336 22.4487 20.8008 22.5424 21.0753 22.5276 21.3847 22.5905 21.6813 22.6236 21.8372 22.7079 21.9891 22.7975 22.1243 22.8682 22.231 23.0108 22.2181 23.0914 22.1461 23.2941 21.9661 23.5438 22.0461 23.768 21.9961 23.9066 21.9661 24.0574 21.9914 24.2347 21.9914" fill="#0E1318" transform="matrix(1.00577 0 0 1 33 657.018)"/><path d="M2.09432 27.3363C2.12511 27.3395 2.16545 27.3568 2.18135 27.3438 2.41352 27.1563 2.73489 27.1737 2.97255 26.993 3.06291 26.9243 3.18622 26.8997 3.29306 26.852 3.45208 26.7809 3.63524 26.7634 3.76376 26.6197 3.79903 26.5807 3.89618 26.6044 3.95719 26.5799 4.1285 26.5098 4.29547 26.4282 4.46563 26.3543 4.54514 26.3197 4.62609 26.2751 4.70965 26.2646 4.93344 26.2367 5.15969 26.2276 5.38419 26.2049 5.45214 26.1983 5.52066 26.1795 5.58456 26.1554 5.83741 26.0586 6.08895 25.9587 6.33992 25.8571 6.3843 25.8393 6.42333 25.8083 6.4521 25.7905 6.39153 25.6044 6.27327 25.6047 6.15314 25.594 5.84174 25.5665 5.5289 25.5425 5.22069 25.4928 5.10938 25.4746 5.02683 25.378 4.9836 25.2538 4.92636 25.0893 4.84641 24.9331 4.75938 24.7353 4.77283 24.7083 4.79336 24.6267 4.84338 24.5724 5.02134 24.3784 5.21433 24.1979 5.39113 24.0031 5.4546 23.9325 5.48886 23.8358 5.53743 23.7489 5.78348 23.636 6.03199 23.522 6.30175 23.3983 6.35567 23.3275 6.36854 23.2215 6.28166 23.1535 6.21227 23.0987 6.09777 23.0491 6.01913 23.0671 5.74662 23.1295 5.43812 23.1253 5.25568 23.3995 4.97826 23.4728 4.76546 23.7413 4.44582 23.6797 4.31658 23.6548 4.19341 23.5967 4.06923 23.5496 4.04378 23.5397 4.02803 23.4985 4.00302 23.4926 3.71403 23.4255 3.71432 23.2056 3.74583 22.985 3.7707 22.8111 3.81624 22.6382 3.87161 22.4708 3.92611 22.307 4.03829 22.1726 4.20816 22.1266 4.40404 22.0738 4.53704 21.9589 4.64807 21.7561 4.87229 21.7945 5.09839 21.8554 5.32651 21.8668 5.65497 21.8833 5.98544 21.9364 6.31433 21.8224 6.4469 21.7768 6.60404 21.8023 6.75019 21.7986 6.98757 21.7924 6.98482 21.7925 7.04583 21.5797 7.07257 21.4852 7.12317 21.3967 7.14703 21.3019 7.21541 21.0311 7.05277 20.87 6.77911 20.913 6.49012 20.9584 6.1968 20.9779 5.9081 21.0262 5.79794 21.0444 5.69617 21.1105 5.56895 21.1642 5.12759 20.9767 4.66036 20.7784 4.17736 20.5734 4.23996 20.3294 4.16854 20.1267 3.99405 19.9558 3.9676 19.9301 3.94591 19.8909 3.93912 19.8546 3.88303 19.5562 3.88433 19.5558 3.7454 19.3882 3.92539 19.2895 4.12474 19.2162 4.2735 19.0855 4.37021 19.0007 4.46967 18.9641 4.57766 18.9287 4.63115 18.9113 4.70546 18.9015 4.75071 18.9255 4.9025 19.006 5.0355 18.942 5.17544 18.8979 5.37104 18.8369 5.56852 18.7818 5.78392 18.7185 5.74344 18.5531 5.8244 18.4474 5.97258 18.4544 6.23149 18.4661 6.35943 18.3513 6.36984 18.1174 6.56197 18.0334 6.6996 18.1104 6.84185 18.1805 7.10438 18.3095 7.24027 18.2486 7.26037 17.9549 7.29709 17.419 7.34306 17.1523 6.99191 16.5671 7.03513 16.2713 7.19025 15.9957 7.14948 15.6838 7.13532 15.575 7.19213 15.5064 7.28436 15.4439 7.44512 15.3345 7.59243 15.2055 7.76432 15.0698 8.44768 15.0091 8.44768 15.0091 8.89106 15.3835 8.88123 15.58 8.9979 15.7819 8.88687 16.0006 8.85926 16.0556 8.93125 16.1615 8.9538 16.2324 8.88412 16.4368 8.80635 16.6285 8.75416 16.8274 8.66612 17.1619 8.86374 17.4207 9.20665 17.43 9.3038 17.4324 9.40196 17.4126 9.49896 17.4009 9.57732 17.3917 9.65495 17.3739 9.73359 17.3685 9.78072 17.3655 9.82929 17.3794 9.87064 17.3847 9.94683 17.5985 9.94683 17.5985 9.88828 18.0434 9.99988 18.0906 10.1206 18.1412 10.2669 18.2031 10.2465 18.2981 10.2579 18.4321 10.2004 18.4773 10.0282 18.6128 10.1463 18.8531 9.98586 18.9881 9.94899 19.0192 9.96909 19.1183 9.96027 19.2135 9.73619 19.4013 9.49795 19.6032 9.25681 19.8013 9.20463 19.8439 9.14492 19.8805 9.08334 19.9081 8.96132 19.9625 8.87516 20.0386 8.81791 20.1676 8.77772 20.2581 8.69272 20.3402 8.60844 20.3967 8.41703 20.525 8.39246 20.5654 8.44898 20.8076 8.4698 20.8969 8.44089 21.0181 8.60974 21.0353 8.63677 20.9747 8.66597 20.9081 8.68896 20.8557 8.91723 20.7453 9.1361 20.6389 9.35627 20.5347 9.38215 20.5221 9.41367 20.5167 9.44273 20.5167 9.79084 20.5189 10.0785 20.3402 10.3834 20.2097 10.5034 20.1585 10.6376 20.1419 10.806 20.0986 10.6681 20.6293 10.4128 20.9847 9.93815 21.1641 9.83883 21.2015 9.74935 21.2659 9.65553 21.3181 9.56098 21.3708 9.46904 21.4626 9.37131 21.4693 9.15171 21.4844 9.03577 21.6409 8.88196 21.7523 8.71758 21.8712 8.53775 21.9685 8.34547 22.0867 8.35689 22.3718 8.17315 22.5045 7.91134 22.5781 7.80118 22.6089 7.701 22.6734 7.58911 22.7258 7.63421 22.8899 7.73685 22.8973 7.846 22.8583 7.9284 22.8288 8.00141 22.7735 8.07947 22.7309 8.33665 22.5901 8.59644 22.535 8.89569 22.6142 9.07625 22.6624 9.27966 22.6233 9.49217 22.6233 9.59163 22.7494 9.71017 22.8997 9.84259 23.0679 9.62618 23.2746 9.57457 23.565 9.50894 23.8479 9.29353 24.0052 9.03794 24.1246 9.00137 24.4347 9.0005 24.4438 8.99443 24.4573 8.9872 24.4602 8.77266 24.5468 8.70269 24.7743 8.54338 24.9121 8.36788 25.0636 8.16592 25.1521 7.91843 25.1177 7.79511 25.1009 7.6624 25.1171 7.53909 25.1433 7.39192 25.1745 7.33698 25.2634 7.37125 25.3725 7.40985 25.4948 7.50584 25.5534 7.62279 25.5269 8.07832 25.4249 8.55394 25.4058 8.98633 25.2035 9.04647 25.1756 9.12222 25.1558 9.18583 25.1654 9.49231 25.2118 9.78563 25.1313 10.0831 25.0886 10.3838 25.0448 10.6841 24.998 10.9854 24.9586 11.0519 24.95 11.1242 24.9569 11.1902 24.9717 11.4931 25.0399 11.7949 25.1132 12.1062 25.1868 12.0991 25.4753 12.3452 25.4236 12.5178 25.4622 12.6584 25.6533 12.71 25.8888 12.9191 26.0316 13.0478 26.1192 13.0235 26.4234 12.9142 26.5428 12.8491 26.6139 12.7818 26.6833 12.7222 26.7588 12.5877 26.9275 12.4348 27.0434 12.2007 27.0359 12.0079 27.0298 11.812 27.1221 11.602 26.995 11.609 26.8344 11.4889 26.7926 11.3336 26.7442 10.966 26.63 10.6141 26.6722 10.2524 26.7617 10.0539 26.8108 9.84433 26.8139 9.64078 26.8462 9.57659 26.8564 9.51848 26.8981 9.45472 26.9158 9.41728 26.926 9.37449 26.9177 9.28327 26.9177 9.52889 26.6503 9.756 26.4412 10.0246 26.2821 10.2027 26.1768 10.3055 26.018 10.41 25.8077 10.3252 25.7916 10.2636 25.7668 10.2047 25.7717 10.0505 25.7847 9.89753 25.8218 9.74313 25.8299 9.29556 25.8538 8.84784 25.8661 8.40012 25.8872 8.19007 25.8969 8.01485 26.0073 7.82489 26.0826 7.51075 26.2068 7.27526 26.49 6.90228 26.5013 6.73314 26.5062 6.56457 26.6048 6.40063 26.673 5.94627 26.8614 5.50202 27.0764 5.0397 27.2422 4.63838 27.3859 4.28145 27.6117 3.88693 27.78 3.86741 27.8556 3.84819 27.9296 3.83879 27.9657 3.65114 28.0824 3.49646 28.1848 3.33541 28.2751 3.26848 28.313 3.18579 28.3204 3.11379 28.3501 3.01535 28.3906 2.87758 28.413 2.83175 28.4885 2.71364 28.6835 2.53481 28.7291 2.33589 28.7567 2.27922 28.842 2.22486 28.9232 2.16068 29.0195 1.8435 28.9841 1.70905 29.28 1.47804 29.4146 1.37901 29.4726 1.29343 29.559 1.18934 29.6012 0.982756 29.6838 0.754053 29.719 0.653436 29.9253 0.512051 29.871 0.422998 29.8308 0.330187 29.802 0.153818 29.7472 0.0920882 29.62 0.0757523 29.4483 0.0653436 29.3388 0.031949 29.2316 8.7633e-15 29.0815 0.0481403 28.9766 0.121146 28.837 0.0617294 28.653 0.0114207 28.496 0.0945458 28.3838 0.263109 28.3118 0.428492 28.2414 0.577105 28.1657 0.624378 27.9669 0.638835 27.9059 0.704901 27.8572 0.74697 27.8024 0.783111 27.7558 0.85496 27.7035 0.848888 27.663 0.812891 27.4165 1.02844 27.3457 1.14713 27.2082 1.1597 27.1938 1.17431 27.1677 1.18645 27.1683 1.43337 27.1819 1.59022 26.9826 1.83179 26.8935 1.9139 27.0323 1.99674 27.1721 2.09432 27.3363M7.51133 24.2575C7.69131 24.3067 7.86566 24.2663 8.01211 24.0956 8.05735 24.0424 8.15161 23.9987 8.21999 24.0028 8.55032 24.0236 8.71628 23.7596 8.93732 23.599 9.05269 23.515 9.08131 23.3558 9.03187 23.2231 8.9778 23.0776 8.82962 23.0901 8.70053 23.099 8.65166 23.1021 8.60338 23.1128 8.55596 23.1241 8.14323 23.2226 7.8087 23.4821 7.43775 23.6659 7.40594 23.6816 7.38888 23.7261 7.36358 23.7557 7.30128 23.8271 7.2261 23.8912 7.17926 23.9713 7.14442 24.0314 7.12115 24.119 7.13835 24.1816 7.14919 24.2196 7.24576 24.2417 7.30663 24.255 7.3633 24.2669 7.4243 24.2575 7.51133 24.2575" fill="#0E1318" transform="matrix(1.00577 0 0 1 33 657.018)"/><path d="M6.13637 34.0424C6.0239 34.2273 5.89176 34.2937 5.7258 34.3184 5.55175 34.3446 5.38101 34.3939 5.20754 34.4235 5.15304 34.4329 5.08234 34.4297 5.03839 34.4019 4.90005 34.3146 4.77037 34.2129 4.6553 34.1296 4.69173 33.7403 4.84786 33.4456 5.0368 33.1656 5.16287 32.979 5.30425 32.8016 5.41701 32.6073 5.46443 32.5256 5.45489 32.4106 5.47643 32.2793 5.08234 32.3399 4.87128 32.0172 4.55381 31.9627 4.4717 31.9482 4.38655 31.9046 4.32178 31.8514 4.12156 31.6872 4.13096 31.6123 4.36617 31.4509 4.35272 31.3739 4.33826 31.2896 4.32381 31.2063 4.98968 30.8485 5.61044 30.4102 6.35018 30.2026 6.34599 30.1808 6.34237 30.1588 6.33818 30.1373 6.13897 30.1189 5.93918 30.1008 5.69935 30.0787 5.68417 30.0155 5.62851 29.921 5.65439 29.8603 5.70542 29.7401 5.72826 29.5654 5.89119 29.544 6.17049 29.5072 6.24624 29.2288 6.45138 29.1045 6.53479 29.0537 6.51918 28.916 6.46005 28.7016 6.35177 28.655 6.24147 28.5822 6.11541 28.6902 6.09459 28.7079 6.04992 28.728 6.03561 28.7182 5.80011 28.5599 5.42713 28.6685 5.28488 28.3306 5.26305 28.2782 5.22965 28.2304 5.19597 28.1707 5.32651 28.0351 5.53527 27.9457 5.40068 27.7026 5.49884 27.6765 5.5529 27.6559 5.60856 27.6484 5.8056 27.622 5.99628 27.5831 6.16066 27.4579 6.20576 27.4238 6.26691 27.4005 6.32329 27.3936 6.82508 27.3315 7.32426 27.1974 7.83415 27.3298 7.87217 27.3395 7.91351 27.3464 7.95168 27.3428 8.23878 27.3151 8.47124 27.3927 8.60569 27.7019 8.36774 27.8486 8.29097 28.1994 7.95038 28.257 7.81954 28.5332 7.52304 28.6231 7.32238 28.82 7.27583 28.8652 7.25545 28.9371 7.22278 28.9971 7.12491 29.0302 7.02704 29.0629 6.9322 29.0949 6.93639 29.2376 7.03152 29.2551 7.11435 29.2744 7.20948 29.2968 7.30952 29.2984 7.4058 29.3182 7.73786 29.3873 8.03061 29.6842 8.07947 30.0083 8.08699 30.0599 8.05938 30.1199 8.03885 30.1725 7.9696 30.3509 7.8765 30.5222 7.83039 30.7058 7.78037 30.9039 7.61975 31.0184 7.52694 31.182 7.47548 31.2724 7.39322 31.3489 7.31371 31.4191 7.16278 31.5521 7.03253 31.6864 7.05985 31.914 7.06491 31.9545 7.00246 32.0354 6.95996 32.0441 6.78171 32.0817 6.72171 32.24 6.62543 32.3558 6.57672 32.4139 6.54592 32.5187 6.56096 32.5914 6.58235 32.6952 6.69367 32.6978 6.78359 32.6845 7.1518 32.6304 7.52926 32.6394 7.88807 32.5149 7.99779 32.4768 8.11981 32.4531 8.2356 32.4555 8.44537 32.4603 8.62232 32.3983 8.80476 32.2348 8.76876 32.1441 8.72828 32.0418 8.68997 31.9446 8.73551 31.8384 8.8117 31.7298 8.82109 31.6157 8.8276 31.5336 8.74896 31.4418 8.70038 31.3593 8.67667 31.3197 8.62087 31.2965 8.60323 31.2558 8.53485 31.0966 8.47616 30.9335 8.42498 30.8004 8.44161 30.4903 8.45751 30.1989 8.47428 29.8846 8.51447 29.803 8.56275 29.6875 8.6255 29.5804 8.75922 29.3533 8.89815 29.1333 9.20318 29.1069 9.28775 29.0997 9.38692 29.067 9.44735 29.0112 9.60363 28.8683 9.78766 28.8456 9.98282 28.8349 10.0904 28.8288 10.1974 28.8083 10.3004 28.7953 10.5168 28.8881 10.364 29.0763 10.4235 29.232 10.4655 29.2573 10.5265 29.2874 10.5803 29.3271 10.7029 29.4191 10.8051 29.5392 10.8042 29.6937 10.8018 30.0515 10.9053 30.4148 10.7515 30.7658 10.7331 30.8076 10.737 30.8592 10.7272 30.9304 10.4561 30.8493 10.2624 31.0305 10.043 31.1181 9.8517 31.194 9.81498 31.3019 9.87685 31.497 9.9448 31.711 10.0064 31.9294 10.0998 32.1323 10.1486 32.2382 10.2602 32.3154 10.3841 32.4499 10.3841 32.452 10.3815 32.5197 10.3922 32.5855 10.4022 32.6471 10.4214 32.7085 10.4453 32.7662 10.4868 32.8672 10.5354 32.9657 10.5747 33.0516 10.446 33.1595 10.3509 33.2435 10.2513 33.3222 10.1919 33.369 10.1271 33.4094 10.0625 33.4485 10.0294 33.4689 9.97155 33.4701 9.95781 33.4968 9.80746 33.7867 9.51241 33.7546 9.26144 33.8068 8.97433 33.8669 8.68188 33.9016 8.39173 33.9473 8.3819 33.9489 8.37135 33.9532 8.36239 33.9512 7.92667 33.8597 7.51148 34.0531 7.08139 34.0446 6.7674 34.0372 6.45384 34.0424 6.13637 34.0424" fill="#0E1318" transform="matrix(1.00577 0 0 1 33 657.018)"/><path d="M61.6729 47.792C60.8234 49.1504 59.9715 50.5093 59.1235 51.8685 57.6764 54.1769 56.2322 56.4887 54.785 58.7979 54.2863 59.593 53.7919 60.3898 53.2984 61.1898 59.1411 60.6404 65.6602 59.7778 68.547 59.0294 68.7621 55.5594 68.9937 52.6494 69.8659 48.5809Z" fill="#B20023" transform="matrix(1.00577 0 0 1 11.2386 636.954)"/><path d="M80.3693 32.8545 74.1582 43.3388C74.1582 43.3388 84.3665 43.0397 90.0466 39.258 92.4246 37.6769 94.6009 34.9569 96.0416 32.4393 98.2001 28.6587 99.5705 24.4083 100.184 20.0635 100.184 20.0637 92.2099 25.945 80.3693 32.8545" fill="#C27E00" transform="matrix(1.00577 0 0 1 11.2386 636.954)"/><path d="M75.0984 50.9295C74.7361 49.4613 72.3489 47.7508 72.3489 47.7508 72.3489 47.7508 70.1128 56.4281 69.4677 59.7 68.9422 62.3668 73.0923 65.6204 75.2379 66.0281 76.1081 64.4937 76.735 62.8448 76.8422 61.1591 76.4262 58.0085 75.0984 50.9295 75.0984 50.9295" fill="#0E1318" transform="matrix(1.00577 0 0 1 11.2386 636.954)"/><path d="M69.8089 33.7724C70.6506 32.6309 73.3288 34.2671 74.4628 36.5259 75.5954 38.786 72.0163 44.456 72.0163 44.456 72.0163 44.456 68.3553 42.3578 67.884 40.3489 67.4149 38.3403 68.9655 34.9153 69.8089 33.7724" fill="#0E1318" transform="matrix(1.00577 0 0 1 11.2386 636.954)"/><path d="M67.3987 40.4621C67.1398 39.3548 67.4307 37.9823 67.7681 36.9211 57.8525 36.4173 51.0025 33.757 51.0025 33.757 53.1613 40.2603 59.0122 44.4195 65.841 44.1137 66.6233 44.0793 68.3608 43.7974 69.7651 43.5039 68.4141 42.4184 67.6174 41.3959 67.3987 40.4621" fill="#C27E00" transform="matrix(1.00577 0 0 1 11.2386 636.954)"/><path d="M94.0215 64.3471 82.8279 43.6979 73.168 46.1347C73.3458 46.8232 73.4974 47.4857 73.6241 48.1404 74.386 48.8182 75.34 49.8284 75.5821 50.8097L75.5859 50.8236 75.5885 50.8373C75.6018 50.9084 76.9237 57.9655 77.3363 61.0939L77.3429 61.1419 77.34 61.1908C77.3136 61.6045 77.2556 62.0261 77.1683 62.4541 82.3969 63.4976 89.8795 64.496 94.0215 64.3471" fill="#B20023" transform="matrix(1.00577 0 0 1 11.2386 636.954)"/><path d="M26.1671 57.2557 26.1671 61.0621 25.1712 61.0621 25.1712 57.2557 23.7642 57.2557 23.7642 56.9101 27.574 56.9101 27.574 57.2557Z" fill="#6A5443" transform="matrix(1.00577 0 0 1 11.2386 636.954)"/><path d="M8.44392 36.8464 10.3474 40.9986 9.32852 40.9986 8.8208 39.8884 7.24258 39.8884 6.70885 40.9986 6.02968 40.9986 8.01297 36.8464ZM7.42792 39.5089 8.6521 39.5089 8.04984 38.1964Z" fill="#6A5443" transform="matrix(1.00577 0 0 1 33 657.018)"/><path d="M11.1847 36.8467 12.1806 36.8467 12.1806 40.9989 11.1847 40.9989Z" fill="#6A5443" transform="matrix(1.00577 0 0 1 33 657.018)"/><path d="M38.1048 59.5118 38.1048 56.9101 38.7294 56.9101 38.7294 61.0629 38.2986 61.0629 35.7817 58.1911 35.7817 61.0621 35.1509 61.0621 35.1509 56.9101 35.7876 56.9101Z" fill="#6A5443" transform="matrix(1.00577 0 0 1 11.2386 636.954)"/><path d="M47.5898 59.5118 47.5898 56.9101 48.2147 56.9101 48.2147 61.0629 47.7838 61.0629 45.2671 58.1911 45.2671 61.0621 44.6362 61.0621 44.6362 56.9101 45.2725 56.9101Z" fill="#6A5443" transform="matrix(1.00577 0 0 1 11.2386 636.954)"/><path d="M20.3018 36.8464 22.2051 40.9986 21.1862 40.9986 20.6784 39.8884 19.1001 39.8884 18.5664 40.9986 17.8871 40.9986 19.871 36.8464ZM19.2856 39.5089 20.5099 39.5089 19.9078 38.1964Z" fill="#6A5443" transform="matrix(1.00577 0 0 1 33 657.018)"/></g></svg>